<?xml version="1.0" standalone="no"?>
<!DOCTYPE svg PUBLIC "-//W3C//DTD SVG 20010904//EN"
 "http://www.w3.org/TR/2001/REC-SVG-20010904/DTD/svg10.dtd">
<svg version="1.0" xmlns="http://www.w3.org/2000/svg"
 width="1278.000000pt" height="1280.000000pt" viewBox="0 0 1278.000000 1280.000000"
 preserveAspectRatio="xMidYMid meet">
<g transform="translate(0.000000,1280.000000) scale(0.100000,-0.100000)"
fill="#000000" stroke="none">
<path d="M5810 12789 c-41 -5 -136 -17 -210 -25 -1198 -137 -2041 -987 -2500
-2523 -162 -544 -267 -1107 -365 -1961 -92 -812 -101 -870 -149 -1013 -145
-431 -523 -728 -1106 -870 -230 -56 -451 -85 -715 -93 -110 -4 -206 -10 -214
-14 -14 -7 63 -52 235 -138 205 -103 450 -191 644 -233 90 -20 134 -23 310
-23 190 0 212 2 303 27 125 33 274 105 400 191 114 78 114 57 0 -31 -218 -168
-452 -267 -731 -308 -123 -19 -423 -21 -546 -5 -44 5 -82 8 -84 5 -3 -3 0 -31
7 -62 59 -268 213 -564 359 -694 204 -180 428 -249 815 -249 l157 0 0 -32 c0
-46 -33 -150 -64 -202 -35 -59 -103 -117 -162 -139 -76 -26 -206 -40 -341 -35
-68 3 -125 3 -128 0 -6 -7 61 -90 159 -197 186 -202 373 -333 724 -506 133
-66 242 -124 242 -129 0 -11 17 -6 -736 -234 -638 -193 -684 -210 -812 -288
-435 -266 -733 -676 -975 -1348 -25 -69 -93 -278 -150 -465 -58 -187 -120
-378 -137 -425 -17 -47 -33 -92 -36 -100 -7 -20 338 -350 461 -443 50 -37 141
-93 203 -124 l114 -58 2226 -7 c1225 -5 2380 -8 2567 -9 187 0 1695 2 3350 6
l3010 6 76 25 c141 46 263 127 534 354 83 69 169 139 192 155 42 29 52 52 34
70 -6 6 -88 197 -184 425 -267 634 -388 891 -545 1160 -277 473 -591 788 -919
918 -58 24 -1803 512 -1828 512 -17 0 3 35 55 93 717 808 983 2044 819 3807
-74 807 -226 1652 -401 2235 -513 1712 -1550 2719 -3032 2944 -308 47 -756 71
-926 50z"/>
</g>
</svg>
